<?xml version="1.0" standalone="no"?>
<!DOCTYPE svg PUBLIC "-//W3C//DTD SVG 20010904//EN"
 "http://www.w3.org/TR/2001/REC-SVG-20010904/DTD/svg10.dtd">
<svg version="1.0" xmlns="http://www.w3.org/2000/svg"
 width="593.000000pt" height="593.000000pt" viewBox="0 0 593.000000 593.000000"
 preserveAspectRatio="xMidYMid meet">
<metadata>
Created by potrace 1.14, written by Peter Selinger 2001-2017
</metadata>
<g transform="translate(0.000000,593.000000) scale(0.100000,-0.100000)"
fill="#000000" stroke="none">
<path d="M0 2965 l0 -2105 2965 0 2965 0 0 2105 0 2105 -2965 0 -2965 0 0
-2105z m5830 -5 l0 -2010 -2860 0 -2860 0 0 2010 0 2010 2860 0 2860 0 0
-2010z"/>
<path d="M1724 3603 c-30 -30 -57 -106 -57 -158 0 -81 31 -127 133 -197 25
-18 47 -35 50 -38 3 -4 12 -9 20 -12 8 -4 41 -27 72 -52 49 -39 56 -49 49 -68
-13 -36 -55 -62 -86 -54 -15 4 -58 39 -96 77 -39 39 -71 70 -73 68 -2 -2 -15
-36 -30 -75 -35 -93 -31 -137 15 -177 115 -98 148 -140 173 -224 16 -51 30
-160 28 -208 -3 -53 -1 -98 5 -108 6 -9 92 151 98 183 2 10 9 29 16 41 19 36
20 186 2 242 -9 26 -21 47 -26 47 -6 0 7 13 30 30 84 62 129 154 119 240 -11
91 -62 155 -199 248 -111 76 -179 139 -198 184 -13 33 -21 34 -45 11z"/>
<path d="M2318 3210 c-23 -18 -23 -20 -23 -253 0 -256 3 -267 56 -267 41 0 56
37 53 133 -1 42 1 77 5 78 80 10 219 76 263 126 26 29 38 104 22 135 -28 53
-57 62 -211 64 -124 2 -146 0 -165 -16z m255 -89 c9 -1 17 -8 17 -17 0 -9 -8
-23 -17 -31 -23 -18 -111 -60 -144 -68 -26 -6 -26 -6 -26 52 0 32 5 61 9 64 8
5 83 5 161 0z"/>
<path d="M2913 3220 c-11 -5 -34 -28 -50 -52 -28 -41 -115 -212 -119 -233 -1
-5 -9 -38 -18 -71 -9 -34 -16 -84 -16 -112 0 -46 2 -51 28 -60 41 -14 69 11
77 68 3 25 10 63 16 85 6 22 11 46 11 54 1 10 13 12 49 8 101 -12 178 -76 193
-162 10 -54 51 -75 88 -45 30 24 27 80 -11 197 -45 137 -134 304 -171 319 -28
11 -55 12 -77 4z m64 -152 c15 -29 33 -68 40 -87 12 -32 12 -33 -4 -19 -18 15
-70 33 -87 29 -13 -3 -46 9 -46 17 0 10 59 112 65 112 3 0 17 -24 32 -52z"/>
<path d="M3248 3210 c-21 -16 -21 -24 -21 -253 0 -259 2 -267 61 -267 42 0 52
31 52 170 l0 119 98 -1 c118 -1 142 5 142 38 0 48 -25 59 -138 59 l-103 0 3
25 c3 25 4 25 98 25 113 1 138 8 146 42 13 50 -11 58 -172 59 -123 1 -148 -1
-166 -16z"/>
<path d="M3632 3218 c-17 -17 -15 -64 4 -82 16 -17 41 -20 68 -10 16 6 22 57
10 88 -7 19 -64 22 -82 4z"/>
<path d="M3794 3220 c-12 -5 -24 -15 -27 -23 -3 -7 -4 -120 -4 -251 2 -254 2
-255 54 -256 46 0 53 22 53 161 l0 130 38 -7 c68 -12 146 -68 166 -119 4 -11
9 -36 12 -55 10 -87 13 -95 45 -107 27 -11 33 -9 54 11 19 19 22 31 18 67 -5
59 -29 124 -64 177 l-29 43 31 38 c51 64 38 149 -29 181 -31 15 -284 22 -318
10z m254 -104 c19 -11 14 -36 -10 -56 -15 -12 -28 -15 -38 -10 -14 8 -88 22
-117 23 -7 0 -13 12 -13 27 l0 26 83 -1 c45 0 88 -4 95 -9z"/>
<path d="M3637 3062 c-14 -16 -17 -44 -18 -173 0 -85 2 -162 6 -172 9 -22 47
-32 74 -17 23 12 22 1 23 244 0 103 -5 117 -48 130 -13 4 -26 0 -37 -12z"/>
<path d="M2409 2633 c-18 -21 -100 -201 -103 -225 -1 -3 -4 -10 -8 -14 -12
-12 -9 -24 5 -24 7 0 21 17 30 38 l16 37 72 -1 c69 -1 88 -10 89 -40 0 -15 29
-39 37 -31 3 4 -1 21 -10 39 -8 18 -34 76 -57 128 -23 52 -45 98 -49 103 -4 4
-14 -1 -22 -10z m28 -60 c6 -16 18 -45 27 -65 l16 -38 -59 0 -60 0 13 33 c27
68 41 97 46 97 3 0 11 -12 17 -27z"/>
<path d="M2604 2633 c-11 -4 9 -70 38 -127 5 -10 11 -28 14 -40 2 -11 8 -30
13 -41 5 -11 12 -28 15 -38 12 -37 32 -9 65 91 19 56 38 102 43 102 4 0 7 -3
6 -7 -2 -7 8 -41 37 -133 1 -3 5 -13 8 -22 4 -10 9 -25 12 -33 6 -20 33 -8 40
18 4 12 10 31 16 42 19 42 67 195 61 195 -20 -1 -32 -24 -63 -117 -23 -71 -36
-98 -41 -88 -12 20 -48 135 -48 150 0 7 -9 23 -19 36 l-19 24 -16 -35 c-8 -19
-26 -70 -38 -112 -21 -72 -29 -84 -34 -55 -5 22 -66 182 -73 188 -3 4 -11 5
-17 2z"/>
<path d="M3115 2598 c-10 -24 -36 -81 -57 -127 -27 -58 -36 -87 -29 -94 12
-12 12 -13 32 33 16 35 16 35 82 34 65 0 97 -13 97 -39 0 -15 28 -40 36 -32 3
3 -7 31 -21 64 -67 146 -78 169 -85 183 -14 30 -36 21 -55 -22z m61 -55 c34
-77 34 -76 -3 -75 -83 1 -82 0 -74 25 12 35 44 107 48 107 2 0 15 -26 29 -57z"/>
<path d="M3374 2629 c-2 -4 -4 -64 -3 -133 0 -99 4 -126 14 -126 10 0 15 16
17 51 3 51 4 52 36 54 35 3 52 -10 95 -72 12 -18 30 -33 40 -33 15 0 13 7 -15
46 -18 25 -36 48 -41 51 -4 2 7 14 24 26 18 12 33 29 35 37 1 8 3 20 5 25 6
19 -11 50 -33 65 -25 15 -165 23 -174 9z m154 -30 c23 -14 29 -52 13 -77 -5
-9 -34 -15 -75 -17 l-66 -4 0 54 c0 51 1 54 28 57 45 5 78 1 100 -13z"/>
<path d="M3688 2622 c-3 -14 -2 -197 1 -240 1 -17 104 -14 153 5 70 28 97 111
61 185 -22 43 -58 60 -138 64 -63 3 -73 1 -77 -14z m165 -34 c53 -53 48 -136
-11 -170 -15 -9 -48 -18 -75 -20 -38 -4 -47 -2 -48 11 -1 9 -2 58 -3 110 l-2
93 63 -5 c34 -2 68 -11 76 -19z"/>
<path d="M4033 2615 c-13 -15 -23 -34 -23 -44 0 -29 29 -59 68 -71 80 -25 92
-32 92 -55 0 -12 -7 -28 -15 -35 -21 -17 -94 -14 -115 5 -21 19 -30 19 -30 0
0 -9 18 -24 41 -34 69 -31 149 3 149 63 0 34 -20 53 -74 70 -26 9 -57 21 -68
27 -27 14 -19 51 14 67 23 11 33 10 64 -3 21 -9 41 -12 46 -7 16 16 -22 35
-75 39 -46 4 -54 1 -74 -22z"/>
<path d="M2330 2306 c0 -2 8 -10 18 -17 15 -13 16 -12 3 4 -13 16 -21 21 -21
13z"/>
<path d="M2427 2303 c-13 -22 -18 -73 -7 -73 6 0 9 4 6 9 -3 4 -1 22 4 40 8
29 7 40 -3 24z"/>
<path d="M2492 2269 c-12 -48 -4 -44 14 6 6 19 8 35 4 35 -4 0 -12 -18 -18
-41z"/>
<path d="M3050 2295 c0 -23 -1 -29 -11 -47 -6 -12 -6 -18 1 -18 8 0 14 23 8
33 -1 1 4 12 11 25 7 14 8 22 1 22 -5 0 -10 -7 -10 -15z"/>
<path d="M3076 2279 c-9 -45 -8 -48 13 -46 11 0 18 4 15 8 -2 4 3 9 11 13 17
6 20 26 4 26 -5 0 -8 -4 -5 -8 2 -4 -4 -14 -15 -20 -19 -12 -20 -11 -13 23 3
19 4 35 1 35 -2 0 -7 -14 -11 -31z"/>
<path d="M3816 2294 c-18 -17 -21 -50 -7 -58 5 -4 7 3 4 13 -3 11 4 28 16 40
12 12 17 21 12 21 -5 0 -17 -7 -25 -16z"/>
<path d="M2297 2293 c-10 -10 -8 -63 2 -63 5 0 7 9 4 20 -3 11 0 27 7 35 12
15 0 22 -13 8z"/>
<path d="M2850 2297 c0 -1 -4 -17 -9 -35 -7 -24 -6 -32 3 -32 7 0 12 10 11 23
-1 12 2 28 8 35 6 8 6 12 -2 12 -6 0 -11 -1 -11 -3z"/>
<path d="M3360 2297 c0 -1 -4 -17 -9 -35 -13 -44 3 -41 16 3 6 20 7 35 2 35
-5 0 -9 -1 -9 -3z"/>
<path d="M3404 2285 c3 -8 1 -15 -5 -15 -6 0 -7 -5 -3 -11 3 -6 0 -15 -7 -20
-11 -7 -10 -9 4 -9 9 0 17 8 18 18 0 9 2 25 4 35 2 9 -1 17 -7 17 -6 0 -8 -7
-4 -15z"/>
<path d="M4026 2274 c-4 -10 0 -14 12 -12 12 2 16 -3 14 -17 -2 -16 -1 -17 7
-5 14 21 14 23 -8 37 -16 10 -20 9 -25 -3z"/>
<path d="M2370 2259 c-7 -11 -9 -23 -7 -26 3 -2 8 5 12 18 6 17 9 19 16 8 6
-9 9 -10 9 -2 0 22 -19 24 -30 2z"/>
<path d="M2470 2270 c0 -5 -5 -9 -12 -7 -6 1 -13 -7 -15 -18 -3 -18 -2 -18 5
-2 4 10 12 18 17 17 5 -1 11 3 13 9 2 6 1 11 -2 11 -3 0 -6 -4 -6 -10z"/>
<path d="M2517 2254 c-5 -27 21 -26 39 2 12 17 11 19 -11 19 -16 0 -25 -7 -28
-21z m33 2 c0 -3 -4 -8 -10 -11 -5 -3 -10 -1 -10 4 0 6 5 11 10 11 6 0 10 -2
10 -4z"/>
<path d="M2607 2260 c-3 -11 -11 -20 -17 -20 -9 0 -9 5 1 18 13 15 12 16 -3 3
-19 -14 -15 -31 7 -31 13 0 31 37 22 46 -2 3 -7 -4 -10 -16z"/>
<path d="M2640 2271 c0 -5 -3 -16 -6 -25 -3 -9 -2 -16 4 -16 5 0 12 11 14 25
3 14 1 25 -3 25 -5 0 -9 -4 -9 -9z"/>
<path d="M2705 2270 c-3 -5 -1 -10 4 -10 6 0 11 5 11 10 0 6 -2 10 -4 10 -3 0
-8 -4 -11 -10z"/>
<path d="M2737 2273 c-4 -3 -7 -16 -6 -27 0 -19 1 -19 10 3 10 24 8 36 -4 24z"/>
<path d="M2780 2259 c0 -11 4 -18 10 -14 5 3 7 12 3 20 -7 21 -13 19 -13 -6z"/>
<path d="M2907 2259 c7 -27 22 -34 20 -9 -1 10 -7 22 -13 24 -7 3 -10 -3 -7
-15z"/>
<path d="M2995 2272 c-9 -10 -5 -42 6 -42 5 0 7 5 4 10 -3 6 1 13 9 16 9 3 16
9 16 13 0 9 -27 10 -35 3z"/>
<path d="M3181 2273 c0 -6 -4 -20 -7 -30 -5 -14 -4 -15 5 -7 7 7 11 20 8 30
-3 11 -5 14 -6 7z"/>
<path d="M3231 2274 c-1 -16 27 -50 35 -41 4 4 2 7 -4 7 -6 0 -9 7 -5 17 4 10
2 14 -4 10 -6 -4 -14 -1 -16 5 -3 7 -6 8 -6 2z"/>
<path d="M3271 2264 c0 -11 3 -14 6 -6 3 7 2 16 -1 19 -3 4 -6 -2 -5 -13z"/>
<path d="M3443 2273 c-7 -3 -13 -14 -12 -26 0 -22 0 -22 9 1 12 27 24 29 17 2
-3 -11 -1 -18 4 -14 11 6 12 31 2 37 -5 2 -14 2 -20 0z"/>
<path d="M3483 2254 c0 -23 1 -24 9 -10 7 12 7 21 0 28 -6 6 -9 0 -9 -18z"/>
<path d="M3512 2275 c4 -4 3 -16 -3 -26 -5 -11 -6 -19 -1 -19 15 0 22 39 9 47
-7 3 -9 3 -5 -2z"/>
<path d="M3546 2264 c-15 -40 11 -48 38 -11 l17 22 -5 -25 c-5 -24 -4 -24 9
-6 20 26 19 35 -2 31 -10 -2 -21 -4 -25 -4 -5 -1 -8 -8 -8 -16 0 -8 -5 -15
-11 -15 -6 0 -8 9 -4 20 7 24 0 27 -9 4z"/>
<path d="M3639 2278 c-5 -17 -4 -48 3 -48 4 0 8 11 8 25 0 20 -7 34 -11 23z"/>
<path d="M3668 2257 c-3 -19 -2 -25 4 -19 6 6 8 18 6 28 -3 14 -5 12 -10 -9z"/>
<path d="M3697 2273 c-4 -3 -7 -15 -7 -26 0 -25 13 -14 17 13 3 21 1 24 -10
13z"/>
<path d="M3725 2269 c-4 -6 -5 -12 -2 -15 2 -3 7 2 10 11 7 17 1 20 -8 4z"/>
<path d="M3745 2261 c-3 -12 -11 -21 -17 -21 -7 0 -7 -4 1 -13 6 -8 7 -18 3
-22 -4 -5 -1 -5 6 -1 7 4 12 13 11 19 -1 7 1 20 6 30 4 10 5 20 2 23 -3 3 -8
-4 -12 -15z"/>
<path d="M3883 2251 l-1 -25 19 24 19 25 0 -22 c0 -15 6 -23 18 -22 10 0 12 3
5 6 -7 2 -13 9 -13 14 0 14 24 6 32 -11 5 -13 7 -12 7 2 1 22 -16 32 -54 33
-25 0 -30 -4 -32 -24z"/>
<path d="M3995 2270 c3 -5 2 -10 -3 -10 -5 0 -9 -7 -9 -15 0 -8 4 -15 9 -15 4
0 8 4 8 9 0 5 3 16 6 25 3 9 1 16 -6 16 -6 0 -8 -4 -5 -10z"/>
<path d="M4078 2255 c-3 -14 -1 -25 3 -25 5 0 9 11 9 25 0 14 -2 25 -4 25 -2
0 -6 -11 -8 -25z"/>
<path d="M4199 2278 c-6 -12 -5 -46 2 -43 4 3 7 14 6 25 -1 18 -5 25 -8 18z"/>
<path d="M2670 2250 c0 -11 2 -20 4 -20 2 0 6 9 9 20 3 11 1 20 -4 20 -5 0 -9
-9 -9 -20z"/>
<path d="M2760 2252 c0 -10 -6 -24 -12 -31 -11 -10 -10 -11 5 -6 15 6 26 55
12 55 -3 0 -5 -8 -5 -18z"/>
<path d="M2945 2260 c-8 -13 3 -30 18 -30 8 0 7 3 -2 9 -7 5 -10 14 -7 20 4 6
5 11 2 11 -3 0 -8 -4 -11 -10z"/>
<path d="M3144 2250 c0 -11 1 -20 3 -20 1 0 7 9 13 20 8 15 8 20 -3 20 -7 0
-13 -9 -13 -20z"/>
<path d="M3203 2255 c-3 -9 -3 -18 -1 -21 3 -3 8 4 11 16 6 23 -1 27 -10 5z"/>
<path d="M4105 2260 c-8 -13 3 -30 18 -29 9 0 9 2 0 5 -7 3 -9 12 -6 20 6 16
-3 19 -12 4z"/>
<path d="M4153 2250 c1 -11 5 -20 9 -20 11 0 10 28 -1 35 -6 3 -9 -4 -8 -15z"/>
<path d="M3844 2251 c4 -5 0 -12 -6 -14 -8 -3 -6 -6 5 -6 9 -1 17 6 17 14 0 8
-5 15 -11 15 -5 0 -8 -4 -5 -9z"/>
<path d="M4020 2240 c0 -5 5 -10 11 -10 5 0 7 5 4 10 -3 6 -8 10 -11 10 -2 0
-4 -4 -4 -10z"/>
<path d="M2776 2213 c-6 -14 -5 -15 5 -6 7 7 10 15 7 18 -3 3 -9 -2 -12 -12z"/>
</g>
</svg>
